<!-- Generated by IcoMoon.io -->
<svg version="1.1" xmlns="http://www.w3.org/2000/svg" width="60" height="60" viewBox="0 0 60 60">
<path fill="#6f3a97" stroke-linejoin="round" stroke-linecap="round" stroke-miterlimit="4" stroke-width="5" stroke="#000" d="M55 42.3v7.5c0 0.006 0 0.013 0 0.020 0 2.761-2.239 5-5 5-0.158 0-0.315-0.007-0.47-0.022l0.020 0.001c-8.114-0.904-15.442-3.643-21.763-7.791l0.188 0.116c-6.079-3.903-11.097-8.921-14.884-14.807l-0.116-0.193c-4.046-6.161-6.787-13.526-7.655-21.454l-0.020-0.221c-0.013-0.135-0.020-0.292-0.020-0.45 0-2.76 2.236-4.997 4.995-5h7.5c0.015-0 0.032-0 0.049-0 2.515 0 4.596 1.856 4.948 4.273l0.003 0.027c0.353 2.625 0.965 4.996 1.824 7.245l-0.074-0.22c0.202 0.522 0.32 1.127 0.32 1.759 0 1.371-0.552 2.613-1.445 3.516l-3.175 3.175c3.623 6.293 8.707 11.377 14.807 14.897l0.193 0.103 3.175-3.175c0.903-0.893 2.145-1.445 3.516-1.445 0.632 0 1.237 0.117 1.793 0.331l-0.034-0.012c2.029 0.785 4.4 1.397 6.859 1.732l0.166 0.018c2.445 0.355 4.302 2.436 4.302 4.951 0 0.044-0.001 0.087-0.002 0.13l0-0.006z"></path>
</svg>
